<?xml version="1.0" standalone="no"?>
<!DOCTYPE svg PUBLIC "-//W3C//DTD SVG 20010904//EN"
 "http://www.w3.org/TR/2001/REC-SVG-20010904/DTD/svg10.dtd">
<svg version="1.0" xmlns="http://www.w3.org/2000/svg"
 width="260.000000pt" height="260.000000pt" viewBox="0 0 260.000000 260.000000"
 preserveAspectRatio="xMidYMid meet">
<metadata>
Created by potrace 1.11, written by Peter Selinger 2001-2013
</metadata>
<g transform="translate(0.000000,260.000000) scale(0.100000,-0.100000)"
fill="#000000" stroke="none">
<path d="M1110 2499 c-36 -3 -202 -7 -370 -8 -167 -1 -306 -4 -309 -7 -7 -7
-8 -204 -1 -204 36 0 246 -33 250 -40 6 -10 5 -1938 -1 -1944 -2 -2 -22 -6
-44 -10 -22 -3 -49 -7 -60 -10 -11 -2 -55 -9 -98 -16 -42 -7 -77 -18 -78 -24
0 -6 -1 -42 -2 -81 l0 -70 538 0 538 0 2 73 c0 40 -2 76 -5 81 -3 4 -32 11
-65 15 -33 4 -75 9 -92 12 -18 2 -48 6 -65 8 -103 14 -154 20 -160 18 -11 -3
-11 -14 -12 366 -1 299 1 342 14 343 50 4 134 7 276 9 89 2 193 9 230 17 484
100 742 449 678 918 -32 230 -124 368 -308 460 -158 79 -302 103 -591 102
-110 -1 -229 -4 -265 -8z m411 -205 c181 -42 293 -143 344 -309 21 -68 24 -92
21 -213 -2 -76 -6 -144 -8 -152 -3 -8 -8 -33 -13 -55 -32 -162 -153 -289 -321
-336 -67 -19 -102 -22 -234 -21 -85 0 -173 3 -195 7 l-40 6 0 530 -1 530 22 5
c93 24 339 28 425 8z"/>
</g>
</svg>